<svg xmlns="http://www.w3.org/2000/svg" viewBox="-0.32 -0.03 121.47 15.56">
        <path fill-rule="evenodd" clip-rule="evenodd" d="M108.392 6.80364V3.75507L106.655 6.22145L103.784 5.27943L105.589 7.74566L103.811 10.2119L106.655 9.26988L108.392 11.7363V8.68768L111.29 7.74566L108.392 6.80364Z" fill="#000000"></path>
        <path fill-rule="evenodd" clip-rule="evenodd" d="M114.004 0.75H108.536L114.904 7.75L108.536 14.75H114.004L120.372 7.75L114.004 0.75Z" fill="#000000"></path>
        <path fill-rule="evenodd" clip-rule="evenodd" d="M6.65681 4.84004C7.51394 4.84004 8.36793 5.25989 8.94098 5.96302L9.14882 6.2183L11.8129 4.38623L11.5725 4.08613C10.3926 2.61419 8.60093 1.77002 6.65681 1.77002C3.24054 1.77002 0.461182 4.43047 0.461182 7.70051C0.461182 10.9706 3.24054 13.6308 6.65681 13.6308C8.58441 13.6308 10.3665 12.7984 11.5464 11.3468L11.7906 11.0464L9.12798 9.21504L8.91954 9.46481C8.33786 10.1617 7.51319 10.5613 6.65681 10.5613C5.07582 10.5613 3.74004 9.25123 3.74004 7.70051C3.74004 6.15008 5.07582 4.84004 6.65681 4.84004Z" fill="#000000"></path>
        <path fill-rule="evenodd" clip-rule="evenodd" d="M35.2902 8.4015L30.457 2.09033H27.3994V13.2605H30.3771V7.00627L34.8625 13.2605H38.2679V2.09033H35.2902V8.4015Z" fill="#000000"></path>
        <path fill-rule="evenodd" clip-rule="evenodd" d="M46.7542 10.0444V10.025C46.7542 10.1348 46.6298 10.1415 46.5791 10.1415C46.5284 10.1415 46.438 10.1336 46.4038 10.024L43.9247 2.09045H40.501L44.1421 13.2607H49.0161L52.6569 2.09045H49.2328L46.7542 10.0444Z" fill="#000000"></path>
        <path fill-rule="evenodd" clip-rule="evenodd" d="M72.459 6.26061H69.8312V5.06912H72.459C72.8221 5.06912 73.1176 5.30683 73.1176 5.66472C73.1176 6.02276 72.8221 6.26061 72.459 6.26061ZM74.4749 8.70107C75.6592 8.01135 76.3483 6.76535 76.2461 5.38888C76.1083 3.53195 74.4868 2.09039 72.5547 2.09039H66.8535V13.2606H69.8312V9.23933H71.1744C71.3089 9.23933 71.4347 9.26048 71.5106 9.3695L73.4288 13.2606H76.7845L74.4749 8.70107Z" fill="#000000"></path>
        <path fill-rule="evenodd" clip-rule="evenodd" d="M90.9725 13.2606H99.9055V10.2819H93.9502V8.94146H99.31V6.26061H93.9502V5.06912H99.9055V2.09039H90.9725V13.2606Z" fill="#000000"></path>
        <path fill-rule="evenodd" clip-rule="evenodd" d="M84.2376 6.30315C82.6415 5.94094 82.1885 5.71068 82.1885 5.1839V5.15098C82.1885 4.73932 82.5034 4.41017 83.2768 4.41017C84.2971 4.41017 85.1316 4.73649 86.2616 5.40447L88.0506 3.29062C86.8 2.28649 85.3003 1.7597 83.3419 1.7597C80.5773 1.7597 78.9131 3.30715 78.9131 5.44707V5.47998C78.9131 7.8506 80.8633 8.54196 83.3154 9.10166C84.8785 9.46387 85.315 9.72734 85.315 10.2047V10.2376C85.315 10.7315 84.7576 11.0279 83.902 11.0279C82.569 11.0279 81.2535 10.5502 80.1181 9.64498L78.3168 11.7684C79.7319 13.0361 81.7832 13.678 83.8238 13.678C86.6213 13.678 88.5905 12.2789 88.5905 9.92483V9.89192C88.5905 7.73547 86.8871 6.87939 84.2376 6.30315Z" fill="#000000"></path>
        <path fill-rule="evenodd" clip-rule="evenodd" d="M19.0454 10.5322C17.483 10.5322 16.2166 9.26524 16.2166 7.70246C16.2166 6.13952 17.483 4.87267 19.0454 4.87267C20.6078 4.87267 21.8742 6.13952 21.8742 7.70246C21.8742 9.26524 20.6078 10.5322 19.0454 10.5322ZM19.0452 1.77216C15.7149 1.77216 13.0055 4.4326 13.0055 7.7025C13.0055 10.9725 15.7149 13.6327 19.0452 13.6327C22.3758 13.6327 25.0853 10.9725 25.0853 7.7025C25.0853 4.4326 22.3758 1.77216 19.0452 1.77216Z" fill="#000000"></path>
        <path fill-rule="evenodd" clip-rule="evenodd" d="M54.7939 13.2606H63.727V10.2819H57.7716V8.94146H63.1314V6.26061H57.7716V5.06912H63.727V2.09039H54.7939V13.2606Z" fill="#000000"></path>
    </svg>
